<?xml version="1.0" encoding="UTF-8" standalone="no"?>
<svg width="512" height="512" viewBox="0 0 512 512" fill="none" xmlns="http://www.w3.org/2000/svg">
  <rect width="512" height="512" rx="100" fill="#1E3A8A"/>
  <path d="M256 120C178.104 120 115 183.104 115 261C115 338.896 178.104 402 256 402C333.896 402 397 338.896 397 261C397 183.104 333.896 120 256 120ZM256 372C194.654 372 145 322.346 145 261C145 199.654 194.654 150 256 150C317.346 150 367 199.654 367 261C367 322.346 317.346 372 256 372Z" fill="white"/>
  <path d="M256 180C211.888 180 176 215.888 176 260C176 304.112 211.888 340 256 340C300.112 340 336 304.112 336 260C336 215.888 300.112 180 256 180ZM256 310C228.386 310 206 287.614 206 260C206 232.386 228.386 210 256 210C283.614 210 306 232.386 306 260C306 287.614 283.614 310 256 310Z" fill="white"/>
  <circle cx="256" cy="260" r="30" fill="white"/>
</svg>
